<?xml version="1.0" standalone="no"?>
<!DOCTYPE svg PUBLIC "-//W3C//DTD SVG 20010904//EN"
 "http://www.w3.org/TR/2001/REC-SVG-20010904/DTD/svg10.dtd">
<svg version="1.0" xmlns="http://www.w3.org/2000/svg"
 width="400.000000pt" height="400.000000pt" viewBox="0 0 400.000000 400.000000"
 preserveAspectRatio="xMidYMid meet">
<metadata>
Created by potrace 1.11, written by Peter Selinger 2001-2013
</metadata>
<g transform="translate(0.000000,400.000000) scale(0.100000,-0.100000)"
fill="#000000" stroke="none">
<path d="M0 2000 l0 -2000 2000 0 2000 0 0 2000 0 2000 -2000 0 -2000 0 0
-2000z m830 92 c0 -391 3 -512 13 -524 6 -9 29 -21 49 -28 47 -15 60 -46 28
-72 -20 -16 -46 -18 -269 -18 -267 0 -286 3 -279 51 2 16 15 29 41 42 l37 17
0 465 0 465 -37 17 c-26 13 -39 26 -41 42 -7 47 14 51 245 51 l213 0 0 -508z
m269 498 c78 -13 144 -46 193 -97 51 -53 70 -104 70 -189 0 -139 -65 -222
-215 -273 l-50 -17 59 -13 c101 -23 169 -70 193 -134 6 -16 11 -77 11 -137 0
-65 4 -111 11 -115 5 -4 21 5 34 19 29 31 46 33 69 7 26 -28 7 -79 -50 -136
-116 -115 -331 -97 -404 35 -22 41 -25 59 -30 201 -4 138 -7 160 -25 179 -11
12 -30 26 -42 31 -19 7 -23 16 -23 53 0 41 2 45 30 51 55 12 60 32 60 218 l0
169 -29 29 c-16 16 -37 29 -45 29 -12 0 -16 11 -16 50 l0 50 68 0 c37 0 96 -5
131 -10z m671 -38 c0 -42 -5 -52 -35 -82 -37 -36 -68 -106 -80 -180 -9 -59
-30 -90 -60 -90 -48 0 -55 28 -55 222 l0 178 115 0 115 0 0 -48z m440 -458 c0
-315 4 -512 10 -524 5 -10 23 -21 40 -25 31 -7 60 -29 60 -46 0 -5 -9 -18 -20
-29 -19 -19 -33 -20 -279 -20 -226 0 -262 2 -276 16 -9 9 -15 26 -13 37 3 20
10 26 63 49 l30 13 3 518 2 517 190 0 190 0 0 -506z m290 318 c0 -198 -3 -212
-45 -212 -33 0 -52 29 -65 99 -14 76 -49 151 -85 179 -21 17 -25 28 -25 71 l0
51 110 0 110 0 0 -188z m300 140 c0 -42 -5 -52 -35 -82 -37 -36 -68 -106 -80
-180 -9 -59 -30 -90 -60 -90 -48 0 -55 28 -55 222 l0 178 115 0 115 0 0 -48z
m440 -458 c0 -315 4 -512 10 -524 5 -10 23 -21 40 -25 31 -7 60 -29 60 -46 0
-5 -9 -18 -20 -29 -19 -19 -33 -20 -279 -20 -226 0 -262 2 -276 16 -9 9 -15
26 -13 37 3 20 10 26 63 49 l30 13 3 518 2 517 190 0 190 0 0 -506z m290 318
c0 -198 -3 -212 -45 -212 -33 0 -52 29 -65 99 -14 76 -49 151 -85 179 -21 17
-25 28 -25 71 l0 51 110 0 110 0 0 -188z"/>
</g>
</svg>
